<svg width="49" height="48" viewBox="0 0 49 48" fill="none" xmlns="http://www.w3.org/2000/svg">
<circle cx="24.2887" cy="23.9278" r="23.9278" fill="#FF0000"/>
<circle cx="24.2887" cy="23.9278" r="19.4414" fill="white"/>
<rect x="22.7932" y="5.23419" width="2.99098" height="7.47745" rx="1.49549" fill="#FF0000"/>
<rect x="22.7932" y="35.144" width="2.99098" height="7.47745" rx="1.49549" fill="#FF0000"/>
<rect x="42.9823" y="22.4324" width="2.99098" height="7.47745" rx="1.49549" transform="rotate(90 42.9823 22.4324)" fill="#FF0000"/>
<rect x="13.0725" y="22.4324" width="2.99098" height="7.47745" rx="1.49549" transform="rotate(90 13.0725 22.4324)" fill="#FF0000"/>
<rect x="36.4496" y="9.65204" width="2.99098" height="7.47745" rx="1.49549" transform="rotate(45 36.4496 9.65204)" fill="#FF0000"/>
<circle r="1.49549" transform="matrix(-0.648133 0.761527 0.761527 0.648133 24.0445 24.4157)" fill="#FF0000"/>
<rect x="23.9596" y="23.3616" width="1.4429" height="7.47745" rx="0.721448" transform="rotate(130.401 23.9596 23.3616)" fill="#FF0000"/>
<rect x="34.0094" y="23.9279" width="1.49549" height="9.72068" rx="0.747745" transform="rotate(90 34.0094 23.9279)" fill="#FF0000"/>
<rect x="15.3002" y="30.8014" width="2.99098" height="7.47745" rx="1.49549" transform="rotate(45 15.3002 30.8014)" fill="#FF0000"/>
<rect x="38.5646" y="36.0887" width="2.99098" height="7.47745" rx="1.49549" transform="rotate(135 38.5646 36.0887)" fill="#FF0000"/>
<rect x="17.4152" y="14.9393" width="2.99098" height="7.47745" rx="1.49549" transform="rotate(135 17.4152 14.9393)" fill="#FF0000"/>
</svg>
