<svg width="111" height="56" viewBox="0 0 111 56" fill="none" xmlns="http://www.w3.org/2000/svg">
<path d="M2.01375 37.456H5.75775V15.52H2.01375V12.976H16.7018C19.6778 12.976 22.2058 13.6 24.2858 14.848C26.3978 16.096 27.9658 17.744 28.9898 19.792C30.0458 21.808 30.5738 23.952 30.5738 26.224C30.5738 28.912 30.0458 31.296 28.9898 33.376C27.9658 35.456 26.4138 37.088 24.3337 38.272C22.2858 39.424 19.7578 40 16.7498 40H2.01375V37.456ZM16.3658 37.456C19.7898 37.456 22.3338 36.432 23.9978 34.384C25.6938 32.336 26.5417 29.648 26.5417 26.32C26.5417 24.4 26.1737 22.624 25.4377 20.992C24.7017 19.36 23.5818 18.048 22.0778 17.056C20.5738 16.032 18.7178 15.52 16.5098 15.52H9.69375V37.456H16.3658Z" fill="white"/>
<path d="M46.2886 38.41V40H42.4786L42.3586 38.95C41.7186 39.43 41.0786 39.78 40.4386 40C39.7986 40.22 39.0786 40.33 38.2786 40.33C37.0786 40.33 36.0986 40 35.3386 39.34C34.5986 38.66 34.2286 37.82 34.2286 36.82C34.2286 35.54 34.6586 34.61 35.5186 34.03C36.3986 33.43 37.5486 33.13 38.9686 33.13C39.9886 33.13 41.0786 33.26 42.2386 33.52V32.29C42.2386 31.39 41.9886 30.71 41.4886 30.25C41.0086 29.79 40.3286 29.56 39.4486 29.56C38.8686 29.56 38.1986 29.66 37.4386 29.86C36.6986 30.04 36.0186 30.3 35.3986 30.64L34.7386 29.2C35.3986 28.78 36.1586 28.46 37.0186 28.24C37.8986 28.02 38.7186 27.91 39.4786 27.91C41.0186 27.91 42.2286 28.29 43.1086 29.05C43.9886 29.79 44.4286 30.8 44.4286 32.08V38.41H46.2886ZM36.3286 36.7C36.3286 37.32 36.5286 37.83 36.9286 38.23C37.3486 38.61 37.9086 38.8 38.6086 38.8C39.7886 38.8 40.9986 38.37 42.2386 37.51V34.81C41.1786 34.57 40.1386 34.45 39.1186 34.45C38.3186 34.45 37.6486 34.63 37.1086 34.99C36.5886 35.33 36.3286 35.9 36.3286 36.7ZM55.2902 28.06C56.0502 28.06 56.8502 28.26 57.6902 28.66L57.1502 30.67C56.4702 30.23 55.7802 30.01 55.0802 30.01C54.2802 30.01 53.6102 30.34 53.0702 31C52.5502 31.64 52.2902 32.53 52.2902 33.67L52.2602 38.41H54.3602V40H47.7902V38.41H50.0702V29.8H47.7902V28.21H52.2602V30.37C52.9002 28.83 53.9102 28.06 55.2902 28.06ZM66.0825 33.16C67.0025 33.38 67.7325 33.62 68.2725 33.88C68.8325 34.12 69.2825 34.48 69.6225 34.96C69.9625 35.44 70.1325 36.08 70.1325 36.88C70.1325 38 69.6925 38.85 68.8125 39.43C67.9325 40.01 66.8725 40.3 65.6325 40.3C64.8725 40.3 64.1525 40.18 63.4725 39.94C62.7925 39.7 62.2525 39.38 61.8525 38.98V40H60.1125V35.92H61.6725L61.7925 37.21C62.1325 37.71 62.6225 38.1 63.2625 38.38C63.9225 38.64 64.6125 38.77 65.3325 38.77C66.1125 38.77 66.7525 38.62 67.2525 38.32C67.7525 38 68.0025 37.58 68.0025 37.06C68.0025 36.46 67.8125 36.03 67.4325 35.77C67.0525 35.51 66.3425 35.27 65.3025 35.05L63.6525 34.69C62.4325 34.39 61.5325 34 60.9525 33.52C60.3725 33.02 60.0825 32.25 60.0825 31.21C60.0825 30.19 60.4825 29.39 61.2825 28.81C62.1025 28.21 63.1525 27.91 64.4325 27.91C65.0525 27.91 65.6825 28.01 66.3225 28.21C66.9825 28.41 67.5025 28.69 67.8825 29.05V28.15H69.6525V32.2H68.0925L67.8825 30.73C67.5825 30.37 67.1325 30.08 66.5325 29.86C65.9525 29.62 65.3725 29.5 64.7925 29.5C64.0925 29.5 63.5025 29.64 63.0225 29.92C62.5425 30.2 62.3025 30.61 62.3025 31.15C62.3025 31.59 62.4725 31.93 62.8125 32.17C63.1525 32.41 63.7325 32.63 64.5525 32.83L66.0825 33.16ZM68.2125 31.33L68.1825 31.27L68.2125 31.33ZM61.4325 36.46C61.4325 36.5 61.4425 36.53 61.4625 36.55L61.4325 36.46ZM75.0117 25.63C74.5517 25.63 74.1617 25.49 73.8417 25.21C73.5417 24.91 73.3917 24.54 73.3917 24.1C73.3917 23.66 73.5417 23.3 73.8417 23.02C74.1617 22.72 74.5517 22.57 75.0117 22.57C75.4717 22.57 75.8517 22.72 76.1517 23.02C76.4717 23.3 76.6317 23.66 76.6317 24.1C76.6317 24.54 76.4717 24.91 76.1517 25.21C75.8517 25.49 75.4717 25.63 75.0117 25.63ZM71.9217 38.41H74.2017V29.8H71.9517V28.21H76.3917V38.41H78.5217V40H71.9217V38.41ZM92.4898 38.41V40H88.6798L88.5598 38.95C87.9198 39.43 87.2798 39.78 86.6398 40C85.9998 40.22 85.2798 40.33 84.4798 40.33C83.2798 40.33 82.2998 40 81.5398 39.34C80.7998 38.66 80.4298 37.82 80.4298 36.82C80.4298 35.54 80.8598 34.61 81.7198 34.03C82.5998 33.43 83.7498 33.13 85.1698 33.13C86.1898 33.13 87.2798 33.26 88.4398 33.52V32.29C88.4398 31.39 88.1898 30.71 87.6898 30.25C87.2098 29.79 86.5298 29.56 85.6498 29.56C85.0698 29.56 84.3998 29.66 83.6398 29.86C82.8998 30.04 82.2198 30.3 81.5998 30.64L80.9398 29.2C81.5998 28.78 82.3598 28.46 83.2198 28.24C84.0998 28.02 84.9198 27.91 85.6798 27.91C87.2198 27.91 88.4298 28.29 89.3098 29.05C90.1898 29.79 90.6298 30.8 90.6298 32.08V38.41H92.4898ZM82.5298 36.7C82.5298 37.32 82.7298 37.83 83.1298 38.23C83.5498 38.61 84.1098 38.8 84.8098 38.8C85.9898 38.8 87.1998 38.37 88.4398 37.51V34.81C87.3798 34.57 86.3398 34.45 85.3198 34.45C84.5198 34.45 83.8498 34.63 83.3098 34.99C82.7898 35.33 82.5298 35.9 82.5298 36.7Z" fill="#24FF00"/>
<rect x="95" width="24" height="7" rx="3.5" transform="rotate(90 95 0)" fill="black"/>
<rect x="103" y="10" width="24" height="7" rx="3.5" transform="rotate(90 103 10)" fill="#FF0000"/>
<rect x="111" y="19" width="24" height="7" rx="3.5" transform="rotate(90 111 19)" fill="#00FF47"/>
</svg>
