<svg width="34" height="50" viewBox="0 0 34 50" fill="none" xmlns="http://www.w3.org/2000/svg">
<circle cx="16.9765" cy="7.80934" r="7.80934" fill="#FF0000"/>
<path d="M19.3175 38.0026C18.9266 40.2028 15.77 40.2028 15.3791 38.0026L13.9011 29.6826C13.6834 28.4572 14.6258 27.3327 15.8703 27.3327L18.8263 27.3327C20.0709 27.3327 21.0132 28.4572 20.7955 29.6826L19.3175 38.0026Z" fill="#FF0000"/>
<path d="M22.7559 19.1521C22.8523 17.9957 23.819 17.1061 24.9795 17.1061H27.017C28.2493 17.1061 29.2483 18.1051 29.2483 19.3374V19.3374C29.2483 20.5697 28.2493 21.5686 27.017 21.5686H24.9795C23.6741 21.5686 22.6475 20.4529 22.7559 19.1521V19.1521Z" fill="#FF0000"/>
<path d="M4.16232 19.1521C4.25869 17.9957 5.22541 17.1061 6.38585 17.1061H8.42342C9.6557 17.1061 10.6547 18.1051 10.6547 19.3374V19.3374C10.6547 20.5697 9.6557 21.5686 8.42342 21.5686H6.38585C5.08048 21.5686 4.05391 20.4529 4.16232 19.1521V19.1521Z" fill="#FF0000"/>
<path d="M25.7309 19.1521C25.8273 17.9957 26.794 17.1061 27.9545 17.1061H29.992C31.2243 17.1061 32.2233 18.1051 32.2233 19.3374V19.3374C32.2233 20.5697 31.2243 21.5686 29.992 21.5686H27.9545C26.6491 21.5686 25.6225 20.4529 25.7309 19.1521V19.1521Z" fill="#FF0000"/>
<path d="M22.8756 19.6042C23.2159 18.6354 24.2771 18.1258 25.246 18.466V18.466C26.2149 18.8063 26.7245 19.8676 26.3843 20.8364L18.4981 43.2918C18.1579 44.2607 17.0966 44.7703 16.1277 44.4301V44.4301C15.1588 44.0898 14.6492 43.0285 14.9895 42.0596L22.8756 19.6042Z" fill="#FF0000"/>
<path d="M22.4231 19.6616C22.8007 18.5864 23.9784 18.0209 25.0536 18.3985V18.3985C26.1288 18.7761 26.6943 19.9538 26.3167 21.029L18.5658 43.0994C18.1882 44.1746 17.0105 44.7401 15.9353 44.3625V44.3625C14.8601 43.9849 14.2946 42.8072 14.6722 41.732L22.4231 19.6616Z" fill="#FF0000"/>
<path d="M21.8108 19.1695C21.8108 18.0299 22.7346 17.1061 23.8742 17.1061V17.1061C25.0137 17.1061 25.9375 18.0299 25.9375 19.1695V42.5614C25.9375 43.701 25.0137 44.6248 23.8742 44.6248V44.6248C22.7346 44.6248 21.8108 43.701 21.8108 42.5614V19.1695Z" fill="#FF0000"/>
<path d="M9.16703 21.5525C9.16703 24.0081 6.19204 24.1462 4.33267 23.4051C1.86811 23.4051 0.242065 24.0081 0.242065 21.5525C0.242065 19.0968 0.380619 17.1061 2.84518 17.1061C5.30974 17.1061 9.16703 17.1061 9.16703 21.5525Z" fill="#FF0000"/>
<rect x="10.6547" y="42.3936" width="13.3874" height="2.23124" fill="#FF0000"/>
<rect x="3.21704" y="17.1061" width="7.43747" height="3.71873" fill="#FF0000"/>
<path d="M19.0804 24.5186C18.3106 25.852 16.3861 25.8519 15.6163 24.5186L13.9276 21.5937C13.1578 20.2603 14.12 18.5937 15.6596 18.5937L19.0371 18.5937C20.5767 18.5937 21.5389 20.2603 20.7691 21.5937L19.0804 24.5186Z" fill="#FF0000"/>
<path d="M9.10701 23.3953C8.72943 22.3201 9.29496 21.1424 10.3702 20.7648V20.7648C11.4454 20.3872 12.6231 20.9528 13.0007 22.028L19.8011 41.3928C20.1787 42.468 19.6131 43.6457 18.5379 44.0233V44.0233C17.4627 44.4008 16.285 43.8353 15.9074 42.7601L9.10701 23.3953Z" fill="#FF0000"/>
<path d="M15.5632 24.3586C16.3029 22.8943 18.3938 22.8943 19.1335 24.3585L20.3911 26.848C21.0631 28.1783 20.0963 29.7499 18.606 29.7499H16.0907C14.6003 29.7499 13.6335 28.1783 14.3055 26.848L15.5632 24.3586Z" fill="#FF0000"/>
<path d="M27.017 21.1968C27.017 19.3484 28.5154 17.8499 30.3638 17.8499V17.8499C32.2122 17.8499 33.7107 19.3484 33.7107 21.1968V40.5342C33.7107 42.3826 32.2122 43.8811 30.3638 43.8811V43.8811C28.5154 43.8811 27.017 42.3826 27.017 40.5342V21.1968Z" fill="#FF0000"/>
<path d="M0.242065 22.6843C0.242065 20.8358 1.74051 19.3374 3.58893 19.3374V19.3374C5.43735 19.3374 6.93579 20.8358 6.93579 22.6843V42.0217C6.93579 43.8701 5.43735 45.3685 3.58893 45.3685V45.3685C1.74051 45.3685 0.242065 43.8701 0.242065 42.0217V22.6843Z" fill="#FF0000"/>
<path d="M8.42334 19.1695C8.42334 18.0299 9.34714 17.1061 10.4867 17.1061V17.1061C11.6263 17.1061 12.5501 18.0299 12.5501 19.1695V42.5614C12.5501 43.701 11.6263 44.6248 10.4867 44.6248V44.6248C9.34714 44.6248 8.42334 43.701 8.42334 42.5614V19.1695Z" fill="#FF0000"/>
<path d="M10.6547 37.2248C10.6547 34.7396 12.6694 32.7249 15.1547 32.7249H21.0296C23.5149 32.7249 25.5296 34.7396 25.5296 37.2249V40.1248C25.5296 42.6101 23.5149 44.6248 21.0296 44.6248H15.1547C12.6694 44.6248 10.6547 42.6101 10.6547 40.1248V37.2248Z" fill="#FF0000"/>
<rect x="23.2983" y="17.1061" width="7.43747" height="3.71873" fill="#FF0000"/>
</svg>
